<?xml version="1.0" standalone="no"?>
<!DOCTYPE svg PUBLIC "-//W3C//DTD SVG 20010904//EN"
 "http://www.w3.org/TR/2001/REC-SVG-20010904/DTD/svg10.dtd">
<svg version="1.0" xmlns="http://www.w3.org/2000/svg"
 width="700.000000pt" height="700.000000pt" viewBox="0 0 700.000000 700.000000"
 preserveAspectRatio="xMidYMid meet">
<metadata>
Created by potrace 1.11, written by Peter Selinger 2001-2013
</metadata>
<g transform="translate(0.000000,700.000000) scale(0.100000,-0.100000)"
fill="#000000" stroke="none">
<path d="M3888 5930 c-103 -144 -336 -491 -455 -675 -279 -435 -710 -1244
-1197 -2248 -46 -94 -127 -262 -181 -372 -180 -370 -235 -486 -238 -498 -1 -7
7 -11 18 -10 11 1 49 4 85 8 36 3 76 7 90 10 14 2 54 7 90 10 36 4 76 8 90 10
14 2 57 7 95 10 39 4 81 8 95 10 14 1 54 6 90 9 36 4 81 9 100 11 19 2 60 7
90 10 30 3 71 8 90 10 19 3 60 7 90 10 30 3 71 8 90 10 19 2 71 7 115 10 44 3
103 8 130 10 45 4 143 12 265 20 25 2 90 6 145 10 55 3 116 8 135 10 19 2 85
6 145 10 151 9 166 12 183 29 13 13 15 238 15 1858 0 1360 -3 1850 -12 1865
-23 45 -48 24 -163 -137z"/>
<path d="M1481 5769 c-54 -7 -138 -35 -155 -50 -6 -5 2 -9 20 -9 87 -1 235
-37 317 -75 65 -31 137 -97 156 -144 l13 -31 30 43 c44 61 85 96 154 129 66
31 149 38 213 19 47 -14 48 -9 6 23 -90 69 -199 90 -289 56 -27 -11 -52 -23
-55 -28 -3 -4 -17 -15 -30 -24 -23 -16 -25 -15 -60 12 -83 66 -201 96 -320 79z"/>
<path d="M5213 5336 c-58 -19 -109 -52 -176 -115 l-57 -54 -18 21 c-10 12 -43
33 -72 48 -113 57 -260 26 -327 -68 -16 -24 -33 -55 -36 -70 -4 -14 -9 -33
-13 -41 -3 -9 2 -16 15 -20 17 -4 26 4 46 41 37 69 84 97 159 97 81 -1 128
-32 176 -118 27 -47 42 -63 60 -64 32 -4 49 11 83 69 68 118 190 199 304 204
79 3 99 17 63 44 -50 38 -134 48 -207 26z"/>
<path d="M927 5154 c-26 -8 -45 -19 -42 -25 4 -5 10 -7 15 -4 15 9 162 -26
210 -50 46 -24 110 -85 110 -107 0 -6 13 7 30 30 53 73 145 110 228 91 32 -7
33 -7 17 12 -48 52 -173 63 -232 21 l-30 -21 -69 34 c-57 29 -80 35 -129 34
-33 0 -82 -7 -108 -15z"/>
<path d="M5530 4819 c-51 -7 -137 -36 -129 -43 2 -2 33 -6 69 -9 68 -6 139
-26 201 -58 36 -18 109 -93 109 -112 0 -5 17 13 38 40 22 26 59 59 83 72 48
26 130 35 180 21 46 -13 20 13 -44 45 -80 39 -168 31 -229 -22 -14 -13 -21
-11 -57 13 -60 39 -154 62 -221 53z"/>
<path d="M4291 4666 c-8 -10 -12 -242 -11 -877 0 -1475 -1 -1404 13 -1422 13
-19 19 -19 642 -32 165 -4 302 -9 304 -11 3 -2 14 5 26 16 l22 21 -174 422
c-96 232 -180 438 -187 457 -7 19 -48 118 -91 220 -43 102 -86 205 -95 230
-21 53 -205 502 -225 545 -7 17 -50 120 -95 230 -88 216 -101 235 -129 201z"/>
<path d="M652 4574 c-46 -12 -112 -40 -112 -47 0 -2 12 -2 27 -1 15 0 45 -3
67 -7 23 -4 57 -9 76 -12 144 -21 285 -104 336 -200 l15 -28 26 38 c37 56 91
102 153 132 45 21 68 26 130 25 41 -1 88 -7 103 -13 42 -17 24 5 -37 43 -126
81 -233 78 -348 -7 l-28 -21 -22 20 c-92 81 -250 113 -386 78z"/>
<path d="M2118 4365 c-19 -13 -44 -36 -55 -51 l-19 -26 -42 21 c-58 29 -113
28 -152 -5 -38 -33 -67 -84 -47 -84 8 0 20 11 27 25 7 13 27 29 43 35 26 9 36
7 68 -14 21 -14 50 -41 64 -61 20 -26 35 -35 57 -35 24 0 32 6 44 38 36 86
105 144 149 124 23 -10 35 -7 35 10 0 16 -66 48 -100 48 -21 0 -50 -10 -72
-25z"/>
<path d="M5617 2074 c-1 -1 -92 -5 -202 -9 -295 -10 -384 -13 -550 -20 -289
-12 -333 -14 -581 -20 -137 -3 -274 -8 -304 -10 -30 -2 -131 -6 -225 -10 -93
-4 -199 -8 -235 -10 -36 -2 -132 -6 -215 -9 -82 -3 -188 -9 -235 -11 -47 -3
-150 -8 -230 -11 -80 -3 -174 -7 -210 -9 -36 -1 -139 -6 -230 -10 -91 -4 -187
-8 -215 -10 -69 -4 -399 -16 -523 -19 -69 -2 -107 -7 -111 -15 -5 -7 54 -168
137 -377 161 -402 146 -379 238 -377 60 1 112 21 154 59 l38 34 32 -30 c47
-44 96 -62 165 -62 69 -1 117 17 166 60 l35 30 39 -34 c44 -38 77 -51 146 -57
63 -6 146 23 182 63 l28 31 36 -32 c51 -45 99 -62 168 -61 69 0 123 20 167 62
l31 30 37 -34 c59 -53 134 -71 218 -53 48 10 126 56 135 79 3 9 14 3 32 -16
87 -90 266 -90 349 -1 l24 26 29 -27 c95 -88 249 -90 338 -4 l34 33 21 -25
c24 -31 91 -63 146 -70 37 -5 46 -2 84 31 80 67 355 303 386 331 17 15 84 73
150 130 65 56 133 114 149 128 17 15 77 67 135 116 58 50 119 103 135 118 17
15 33 28 38 28 12 0 8 40 -5 42 -16 2 -129 4 -131 2z"/>
</g>
</svg>
